<?xml version="1.0" encoding="UTF-8" standalone="no"?>
<svg
   viewBox="0 0 48.036415 42.883518"
   version="1.1"
   id="svg1"
   width="48.036415"
   height="42.883518"
   sodipodi:docname="logo.svg"
   inkscape:version="1.4.3 (0d15f75042, 2025-12-25)"
   xml:space="preserve"
   xmlns:inkscape="http://www.inkscape.org/namespaces/inkscape"
   xmlns:sodipodi="http://sodipodi.sourceforge.net/DTD/sodipodi-0.dtd"
   xmlns="http://www.w3.org/2000/svg"
   xmlns:svg="http://www.w3.org/2000/svg"><sodipodi:namedview
     id="namedview1"
     pagecolor="#ffffff"
     bordercolor="#111111"
     borderopacity="1"
     inkscape:showpageshadow="0"
     inkscape:pageopacity="0"
     inkscape:pagecheckerboard="1"
     inkscape:deskcolor="#d1d1d1"
     inkscape:zoom="8.0303661"
     inkscape:cx="-20.360217"
     inkscape:cy="27.20922"
     inkscape:window-width="2560"
     inkscape:window-height="1375"
     inkscape:window-x="0"
     inkscape:window-y="65"
     inkscape:window-maximized="1"
     inkscape:current-layer="svg1" /><defs
     id="defs1"><rect
       x="-44.884903"
       y="7.2753005"
       width="29.964373"
       height="29.34782"
       id="rect4" /></defs><path
     id="rect5"
     style="fill:#fbfff8;fill-rule:evenodd;stroke-width:0.41;stroke-dashoffset:0.6538"
     d="M 0,0 H 48.036415 V 42.883518 H 0 Z" /><g
     id="g1"
     transform="matrix(0.06117797,0.02074739,-0.02074739,0.06117797,25.873878,3.4999333)"
     style="fill:#c0c0c0;fill-opacity:1">
	<ellipse
   style="fill:#c0c0c0;fill-opacity:1"
   cx="255.99899"
   cy="220.742"
   rx="146.92999"
   ry="212.34599"
   id="ellipse1" />
	<path
   style="fill:#c0c0c0;fill-opacity:1"
   d="M 328.851,503.608 H 183.144 c 0,-10.81 4.38,-20.589 11.459,-27.657 8.344,-8.344 20.418,-12.935 33.493,-11.043 v -35.64 H 283.9 v 35.64 c 13.084,-1.892 25.16,2.7 33.493,11.043 7.078,7.068 11.458,16.848 11.458,27.657 z"
   id="path1-2" />
</g><path
     style="fill:#c0c0c0;stroke-width:0.0646005;fill-opacity:1"
     d="m 34.336137,35.651802 -0.628521,1.853325 c -0.604571,-0.03463 -1.202809,-0.147674 -1.78614,-0.3455 -0.58327,-0.197806 -1.1269,-0.47207 -1.627837,-0.812288 l 0.628522,-1.853325 z"
     id="path2" /><path
     style="fill:#c3f6f9;stroke-width:0.0646005"
     d="m 33.4263,32.723349 c -1.732376,-0.587504 -3.046798,-2.172099 -3.701152,-4.461786 -0.703788,-2.462933 -0.556869,-5.395565 0.413756,-8.257652 0.970625,-2.862088 2.637941,-5.279105 4.694749,-6.805832 1.912207,-1.419353 3.919363,-1.877428 5.651739,-1.289924 1.732376,0.587504 3.046797,2.172098 3.701154,4.461787 0.703785,2.462931 0.556862,5.395562 -0.413763,8.257649 -0.970624,2.862088 -2.637937,5.279107 -4.694742,6.805834 -1.91221,1.419351 -3.919365,1.877428 -5.651741,1.289924 z"
     id="path3" /><path
     id="path4"
     d="m 45.934989,12.657289 c -0.145517,-0.261834 -0.475855,-0.356062 -0.737691,-0.210545 -0.261849,0.145585 -0.356059,0.47585 -0.210572,0.737677 1.756363,3.159192 1.922537,7.64728 0.444515,12.005536 -2.333189,6.87989 -8.033458,11.187656 -12.706841,9.602764 -4.673386,-1.584894 -6.577236,-8.471458 -4.244047,-15.351347 2.33319,-6.879894 8.033377,-11.1876158 12.706763,-9.6027223 1.04278,0.3536393 1.967482,0.9772013 2.748359,1.8532863 0.199301,0.22353 0.54218,0.243352 0.765808,0.04395 0.223608,-0.199342 0.243323,-0.542187 0.04395,-0.765804 C 43.838064,9.9522574 42.758167,9.225929 41.535526,8.8112927 38.960849,7.938138 36.068567,8.551637 33.391435,10.538742 c -2.617618,1.942963 -4.726627,4.980939 -5.938461,8.554283 -1.211834,3.573343 -1.385931,7.267577 -0.490201,10.401959 0.646147,2.261186 1.793633,4.04415 3.316898,5.205432 l -0.428806,1.264425 c -0.725385,-0.204387 -1.495957,-0.136922 -2.185688,0.203461 -0.735233,0.362131 -1.285356,0.989633 -1.548869,1.766654 -0.09621,0.283682 0.05575,0.591699 0.339494,0.687925 l 5.074837,1.721038 c 0.283682,0.09621 0.591699,-0.05575 0.687925,-0.339494 0.0962,-0.283681 -0.05575,-0.591703 -0.339493,-0.687929 l -4.490466,-1.52286 c 0.18967,-0.276062 0.447787,-0.500331 0.756359,-0.652307 0.567495,-0.280062 1.220696,-0.273762 1.791939,0.01683 0.0029,0.0014 0.006,0.0025 0.0089,0.0039 0.0097,0.0046 0.01955,0.0087 0.0295,0.01296 0.0081,0.0032 0.01614,0.0067 0.02438,0.0095 0.003,0.0011 0.0059,0.0024 0.009,0.0035 l 3.413917,1.157767 c 0.003,0.001 0.0059,0.0016 0.0089,0.0026 0.0086,0.0028 0.01727,0.005 0.02583,0.0075 0.01035,0.0027 0.02059,0.0053 0.03081,0.0075 0.0032,6.5e-4 0.0064,0.0017 0.0095,0.0024 0.630371,0.117054 1.152551,0.509282 1.432736,1.077026 0.152345,0.308082 0.220749,0.643017 0.203304,0.97749 L 33.50451,39.867734 c -0.283681,-0.0962 -0.591699,0.05575 -0.687924,0.339495 -0.09621,0.283685 0.05575,0.591703 0.339492,0.687928 l 2.21348,0.750661 c 0.28369,0.09621 0.591702,-0.05575 0.687929,-0.339497 0.263533,-0.777082 0.208584,-1.609711 -0.15449,-2.343975 -0.340503,-0.689975 -0.911054,-1.212326 -1.611181,-1.491372 l 0.428807,-1.264427 c 1.915492,0.0049 3.91078,-0.712236 5.799114,-2.113899 2.617595,-1.942902 4.726628,-4.980938 5.938462,-8.554281 1.575003,-4.643383 1.379228,-9.45877 -0.523361,-12.881132 z m -12.677583,24.487375 -2.386614,-0.809377 0.347124,-1.023566 c 0.36918,0.201936 0.755661,0.371961 1.15809,0.508437 0.402366,0.136455 0.812604,0.236626 1.228464,0.300919 l -0.347124,1.023566 z"
     style="stroke-width:0.0646005" /><path
     d="m 34.51033,12.762573 c -2.144563,1.591783 -3.879507,4.101623 -4.885195,7.067102 -1.005689,2.96548 -1.155478,6.012966 -0.421531,8.580877 0.704672,2.465959 2.142439,4.180039 4.048441,4.826425 1.905999,0.646384 4.089908,0.16053 6.149257,-1.368063 2.14456,-1.591788 3.879506,-4.101627 4.885194,-7.067106 1.005688,-2.96548 1.155472,-6.012969 0.421532,-8.580872 -0.704736,-2.465985 -2.142502,-4.180066 -4.048502,-4.826451 -1.906002,-0.646386 -4.089763,-0.160547 -6.149196,1.368088 z m 8.681821,2.479057 -8.918486,3.2341 c -0.281629,0.102108 -0.42713,0.413275 -0.324998,0.694845 0.05844,0.161159 0.185415,0.277754 0.336093,0.328854 0.112509,0.03815 0.238363,0.03977 0.358851,-0.0039 l 8.940811,-3.242222 c 0.02787,0.0875 0.05494,0.175732 0.0806,0.265606 0.08783,0.30742 0.16145,0.622772 0.221536,0.944654 l -2.529785,0.91741 c -0.281629,0.102108 -0.427129,0.413274 -0.325007,0.694842 0.05844,0.161163 0.185415,0.277754 0.336096,0.328854 0.112509,0.03816 0.238359,0.03977 0.358846,-0.004 l 2.309432,-0.837496 c 0.162858,1.862899 -0.09923,3.89186 -0.776839,5.889934 -0.02875,0.08479 -0.05823,0.169205 -0.08799,0.253246 l -7.31904,2.653922 c -0.281612,0.102046 -0.427109,0.413214 -0.325008,0.694846 0.05842,0.161221 0.185373,0.277875 0.336055,0.328976 0.112505,0.03815 0.238359,0.03977 0.358853,-0.004 l 6.394055,-2.318421 c -0.951294,2.050211 -2.288067,3.768531 -3.861052,4.936069 -1.764919,1.310091 -3.595468,1.740404 -5.154221,1.211781 -0.969792,-0.328887 -1.797128,-1.016494 -2.429408,-1.998057 l 3.447848,-1.250212 c 0.281607,-0.102043 0.427109,-0.413214 0.324997,-0.694845 -0.102023,-0.281668 -0.413189,-0.427168 -0.694844,-0.324997 l -3.595313,1.303679 c -0.155876,-0.352596 -0.292126,-0.730664 -0.407125,-1.132767 -0.387038,-1.354131 -0.503662,-2.860147 -0.356136,-4.419354 l 10.021223,-3.633947 c 0.281634,-0.102106 0.427134,-0.413273 0.325007,-0.694842 -0.102128,-0.281569 -0.413113,-0.427008 -0.694841,-0.325007 l -9.485127,3.439623 c 0.0858,-0.478279 0.196151,-0.959145 0.330091,-1.43979 l 2.547654,-0.923833 c 0.281628,-0.102104 0.427129,-0.413275 0.325007,-0.694841 -0.102087,-0.28169 -0.413254,-0.427191 -0.694849,-0.324999 l -1.753211,0.635737 c 0.952166,-2.562272 2.483301,-4.715507 4.34516,-6.097432 1.765041,-1.310049 3.595528,-1.740379 5.154156,-1.211798 1.221359,0.414201 2.216855,1.397246 2.881162,2.819824 z"
     id="path5"
     style="stroke-width:0.0646005" /><path
     d="m -34.16903,8.9255414 q -0.807294,0.5520851 -2.317716,0.5520851 -0.380209,0 -0.869794,-0.119792 Q -37.945084,9.217209 -38.24196,8.99325 h -0.05208 q -0.223959,0 -0.375001,-0.1562505 -0.151042,-0.1562505 -0.151042,-0.3802095 0,-0.5468768 0.04687,-1.6354219 0.05208,-1.0937534 0.05208,-1.6406302 0,-0.6093769 -0.02604,-1.817714 -0.02083,-1.2135455 -0.02083,-1.8229225 0,-0.2135423 0.218751,-0.447918 0.21875,-0.23437577 0.437501,-0.23437577 0.125,0 0.833336,0.34895947 0.802086,0.3906262 0.927086,0.432293 1.479172,0.5052099 2.520842,1.5520882 1.223962,1.2343789 1.223962,2.7135503 0,0.8906278 -0.421877,1.7083387 -0.416667,0.8177109 -1.140628,1.3125041 z m -1.093754,-5.510434 q -0.531251,-0.3489595 -2.453132,-1.1979205 l 0.02604,1.5000048 0.01563,1.4947963 -0.08333,2.843759 q 0.03646,0.015625 0.109375,0.067709 0.458335,0.3072926 1.156254,0.3072926 1.187504,0 1.729172,-0.3645845 0.50521,-0.3437511 0.802086,-0.9218779 0.302084,-0.5833352 0.302084,-1.2135455 0,-1.4687546 -1.604172,-2.5156329 z m 11.213577,4.3906388 q 0,0.2500008 -0.08333,0.833336 -0.08333,0.5260433 -0.557294,0.5260433 -0.286459,0 -0.682293,-0.3750011 -2.119799,-2.0052147 -4.864599,-5.7864767 l -0.02604,1.1822954 -0.01563,1.1875038 q 0,0.432293 0.01563,1.2968791 0.02083,0.8645861 0.02083,1.3020874 0,1.4010461 -0.541668,1.4010461 -0.286459,0 -0.453126,-0.1822922 -0.151042,-0.1614589 -0.151042,-0.3854179 0,-0.2187507 0.03125,-0.6614604 0.03646,-0.4427098 0.03646,-0.6614604 0,-0.3229177 0.02083,-0.9635448 0.02083,-0.6458353 0.02083,-0.968753 0,-0.3437511 -0.01563,-1.0364616 -0.01563,-0.6979189 -0.01563,-1.04167 0,-0.328126 -0.0625,-0.9739614 -0.0625,-0.6510437 -0.0625,-0.9791698 0,-0.239584 0.203126,-0.4375013 0.208334,-0.19791733 0.468751,-0.19791733 0.276043,0 0.682294,0.60416853 1.296879,1.9427145 2.333341,3.2291769 1.234379,1.5260465 2.708342,2.9166759 0.01563,-0.223959 0,-0.6614604 l -0.01563,-0.6562521 q 0,-2.2864656 -0.177084,-3.6406365 -0.02083,-0.1354171 -0.140625,-0.5468767 -0.104167,-0.3541678 -0.104167,-0.5520851 0,-0.60416858 0.552085,-0.60416858 0.906252,0 0.906252,3.38021898 0,0.5781269 -0.01563,1.7291722 -0.01563,1.1458369 -0.01563,1.7239637 z m 1.171879,-0.1406254 q -0.0052,-0.2187507 0.145834,-0.3541678 0.15625,-0.1406254 0.380209,-0.1406254 0.255209,0 0.447918,0.2916676 0.265626,0.3958345 0.47396,0.53646 0.44271,0.2916676 1.286463,0.2916676 0.807294,0 1.500004,-0.3489595 0.88542,-0.447918 0.88542,-1.2447956 0,-0.656252 -0.744794,-1.0364616 -0.630211,-0.328126 -1.557297,-0.3541678 -0.822919,-0.03125 -1.401046,-0.3593761 -0.739586,-0.4218763 -0.739586,-1.2083371 0,-0.9270863 1.052087,-1.6927137 1.005212,-0.7239606 2.078132,-0.7239606 0.50521,0 1.140628,0.1718755 0.843753,0.223959 0.843753,0.5729185 0,0.4583348 -0.468752,0.4583348 -0.208334,0 -0.729169,-0.1093754 -0.520835,-0.1145837 -0.807294,-0.1093753 -0.812502,0.010417 -1.380212,0.4010429 -0.583336,0.4010429 -0.583336,0.9739614 0,0.432293 0.770836,0.6093769 0.286459,0.067709 1.109379,0.1250004 1.192712,0.088542 1.864589,0.7500024 0.614585,0.6041686 0.614585,1.473963 0,1.2395872 -1.145837,1.9791729 -0.994795,0.640627 -2.307299,0.640627 -0.953128,0 -1.744797,-0.3645845 -0.968753,-0.447918 -0.984378,-1.2291705 z"
     id="text2-1"
     style="font-size:10.6667px;font-family:'Comic Sans MS';-inkscape-font-specification:'Comic Sans MS, Normal';text-align:end;text-anchor:end;fill:#18ff26;fill-rule:evenodd;stroke:#000000;stroke-width:0.41;stroke-dashoffset:0.6538"
     transform="matrix(-0.95049232,-0.31074806,-0.31074806,0.95049232,0,0)"
     aria-label="DNS" /><path
     d="m 2.6401206,41.557528 q -0.8072942,0.552085 -2.31771568,0.552085 -0.38020953,0 -0.86979441,-0.119792 Q -1.135933,41.849196 -1.432809,41.625237 h -0.052083 q -0.223959,0 -0.3750011,-0.156251 -0.1510422,-0.15625 -0.1510422,-0.380209 0,-0.546877 0.046875,-1.635422 0.052083,-1.093754 0.052083,-1.64063 0,-0.609377 -0.026042,-1.817715 -0.020833,-1.213545 -0.020833,-1.822922 0,-0.213542 0.2187507,-0.447918 0.2187507,-0.234376 0.4375014,-0.234376 0.1250004,0 0.83333596,0.34896 0.80208586,0.390626 0.92708626,0.432293 1.47917138,0.50521 2.52084128,1.552088 1.2239622,1.234379 1.2239622,2.71355 0,0.890628 -0.4218763,1.708339 -0.416668,0.817711 -1.1406286,1.312504 z M 1.5463671,36.047094 q -0.5312517,-0.348959 -2.45313273,-1.19792 l 0.0260417,1.500004 0.0156251,1.494797 -0.0833336,2.843759 q 0.0364584,0.01563 0.10937534,0.06771 0.45833478,0.307293 1.15625365,0.307293 1.18750373,0 1.72917213,-0.364585 0.5052099,-0.343751 0.8020859,-0.921878 0.3020843,-0.583335 0.3020843,-1.213545 0,-1.468755 -1.6041718,-2.515633 z m 11.2135769,4.390639 q 0,0.250001 -0.08333,0.833336 -0.08333,0.526043 -0.557293,0.526043 -0.286459,0 -0.682294,-0.375001 -2.1197982,-2.005215 -4.8645985,-5.786477 l -0.026042,1.182296 -0.015625,1.187504 q 0,0.432293 0.015625,1.296879 0.020833,0.864586 0.020833,1.302087 0,1.401046 -0.5416684,1.401046 -0.2864593,0 -0.4531264,-0.182292 -0.1510422,-0.161459 -0.1510422,-0.385418 0,-0.218751 0.03125,-0.66146 0.036459,-0.44271 0.036459,-0.661461 0,-0.322918 0.020833,-0.963545 0.020833,-0.645835 0.020833,-0.968753 0,-0.343751 -0.015625,-1.036461 -0.015625,-0.697919 -0.015625,-1.04167 0,-0.328126 -0.0625,-0.973962 -0.0625,-0.651043 -0.0625,-0.979169 0,-0.239584 0.2031256,-0.437502 0.208334,-0.197917 0.4687515,-0.197917 0.2760425,0 0.6822938,0.604169 1.2968791,1.942714 2.3333407,3.229176 1.2343793,1.526047 2.7083423,2.916676 0.01563,-0.223959 0,-0.66146 l -0.01563,-0.656252 q 0,-2.286466 -0.177084,-3.640637 -0.02083,-0.135417 -0.140626,-0.546876 -0.104167,-0.354168 -0.104167,-0.552085 0,-0.604169 0.552085,-0.604169 0.906253,0 0.906253,3.380219 0,0.578127 -0.01563,1.729172 -0.01563,1.145837 -0.01563,1.723964 z m 1.171879,-0.140626 q -0.0052,-0.21875 0.145833,-0.354167 0.156251,-0.140626 0.38021,-0.140626 0.255209,0 0.447918,0.291668 0.265626,0.395834 0.47396,0.53646 0.44271,0.291667 1.286462,0.291667 0.807294,0 1.500005,-0.348959 0.885419,-0.447918 0.885419,-1.244796 0,-0.656252 -0.744794,-1.036461 -0.63021,-0.328126 -1.557296,-0.354168 -0.822919,-0.03125 -1.401046,-0.359376 -0.739586,-0.421877 -0.739586,-1.208337 0,-0.927087 1.052087,-1.692714 1.005211,-0.723961 2.078131,-0.723961 0.50521,0 1.140629,0.171876 0.843753,0.223959 0.843753,0.572918 0,0.458335 -0.468752,0.458335 -0.208334,0 -0.729169,-0.109375 -0.520835,-0.114584 -0.807294,-0.109376 -0.812503,0.01042 -1.380213,0.401043 -0.583335,0.401043 -0.583335,0.973962 0,0.432293 0.770836,0.609377 0.286459,0.06771 1.109378,0.125 1.192712,0.08854 1.86459,0.750003 0.614585,0.604168 0.614585,1.473963 0,1.239587 -1.145837,1.979172 -0.994795,0.640627 -2.307299,0.640627 -0.953128,0 -1.744797,-0.364584 -0.968753,-0.447918 -0.984378,-1.229171 z"
     id="text2"
     style="font-size:10.6667px;font-family:'Comic Sans MS';-inkscape-font-specification:'Comic Sans MS, Normal';text-align:end;text-anchor:end;fill:#18ff26;fill-rule:evenodd;stroke:#000000;stroke-width:0.41;stroke-dashoffset:0.6538"
     transform="rotate(-26.37798)"
     aria-label="DNS" /><path
     d="m -5.8667883,41.045399 c 0,-0.634552 -0.4683605,-0.75542 -0.9971545,-0.75542 h -0.9971544 v -5.786517 h 1.6468156 v 1.405081 c 0,0.528794 0.1359756,0.997155 0.7554201,0.997155 0.6345528,0 0.75542,-0.423036 0.75542,-0.997155 v -2.915921 h -7.7959345 v 2.915921 c 0,0.559011 0.151084,0.997155 0.75542,0.997155 0.634553,0 0.75542,-0.468361 0.75542,-0.997155 v -1.405081 h 1.6165988 v 5.786517 h -0.9820458 c -0.589228,0 -0.997155,0.135976 -0.997155,0.75542 0,0.302168 0.151084,0.75542 0.997155,0.75542 h 3.4900402 c 0.5892276,0 0.9971545,-0.1813 0.9971545,-0.75542 z"
     id="text3"
     style="font-weight:bold;font-size:15.1084px;font-family:FreeMono;-inkscape-font-specification:'FreeMono, Bold';text-align:end;text-anchor:end;fill:#e20074;fill-rule:evenodd;stroke-width:0.580727;stroke-dashoffset:0.6538"
     transform="rotate(-27.259035)"
     aria-label="T" /><path
     d="M 11.278997,8.3672883 C 11.606098,8.1345527 11.85092,7.7787435 11.938952,7.3356123 12.12146,6.4169259 11.575674,5.4883733 10.656991,5.3058651 L 9.1438596,5.0052657 C 9.430503,3.5623887 8.4907893,2.1567488 7.0479122,1.8701053 5.9400848,1.6500226 4.856961,2.1538658 4.2800319,3.0503678 3.1225308,2.8541241 2.005162,3.6151707 1.7743449,4.7770411 1.5403071,5.9551213 2.3111264,7.1081367 3.4892086,7.3421741 L 5.1860758,7.6792748 C 5.1182241,7.8511668 5.0611807,8.025206 5.0246796,8.2089432 L 4.7544773,8.1552647 C 3.7114985,7.948065 2.6945144,8.6279458 2.4873152,9.6709265 2.2801165,10.713905 2.9599965,11.73089 4.002978,11.938088 l 5.9444389,1.180928 c 1.3510121,0.268392 2.6465361,-0.597685 2.9149251,-1.94871 0.240481,-1.210504 -0.45798,-2.3884629 -1.583345,-2.8030177 M 10.162132,12.038209 4.2176916,10.857282 C 3.7691565,10.768176 3.4790157,10.334176 3.5681223,9.8856408 3.6572289,9.4371059 4.0912278,9.1469642 4.5397628,9.2360708 L 5.8907722,9.5044636 6.1054855,8.4236567 C 6.3126852,7.3806779 7.3296688,6.7007952 8.3726483,6.9079937 9.4156287,7.115192 10.095512,8.1321763 9.8883129,9.1751551 l 0.8106061,0.1610356 c 0.745757,0.1481526 1.230769,0.8736453 1.082616,1.6194013 -0.148152,0.745757 -0.873645,1.23077 -1.619403,1.082617 z"
     id="path1-1"
     style="stroke-width:0.550964" /></svg>
